<?xml version="1.0" encoding="UTF-8"?>
<svg id="Layer_1" data-name="Layer 1" xmlns="http://www.w3.org/2000/svg" viewBox="0 0 512 512">
  <defs>
    <style>
      .cls-1 {
        fill: none;
      }

      .cls-1, .cls-2 {
        stroke-width: 0px;
      }

      .cls-2 {
        fill: #231f20;
      }
    </style>
  </defs>
  <path class="cls-2" d="M382.623,418.592l-17.021-6.978c-44.174-18.106-79.46-27.95-111.047-30.978-36.931-3.545-69.512,2.334-99.605,17.959l-27.317,14.184,15.372-26.666c5.537-9.718,16.706-38.444,19.265-77.472,1.878-28.647-.932-58.629-8.352-89.11-9.308-38.237-25.941-77.393-49.437-116.379l-13.136-21.796,23.918,8.691c.817.297,20.277,7.473,44.153,25.193,18.229,13.528,42.06,35.646,60.315,68.21,3.68-16.888,7.258-41.888,7.844-73.638l.637-34.48,16.208,30.234c.188.3.523.808.997,1.529,13.05,19.905,26.791,43.997,40.947,71.786,11.677-21.418,37.446-58.92,87.935-94.031l28.039-19.499-14.788,30.785c-.146.305-15.084,31.977-23.701,85.17-7.94,49.017-11.985,126.898,13.837,219.563l4.938,17.721ZM234.483,361.712c41.773,0,83.073,11.954,121.318,26.637-21.717-88.544-17.429-162.847-9.592-210.709,3.992-24.384,9.197-44.313,13.835-59.112-49.872,42.566-64.771,83.501-64.937,83.97l-7.135,20.231-9.443-19.245c-11.779-24.051-23.278-45.567-34.342-64.271-3.778,47.938-13.526,71.499-14.013,72.65l-8.327,19.674-8.262-19.702c-16.99-40.515-44.385-66.819-64.375-81.752-5.081-3.796-9.957-7.072-14.451-9.867,16.869,32.115,29.229,64.26,36.848,95.885,7.807,32.405,10.68,64.339,8.542,94.917-1.876,26.835-7.267,47.863-12.19,62.184,22.04-8.117,44.354-11.489,66.523-11.489ZM244.489,105.693l.018.034c-.006-.011-.012-.022-.018-.034Z"/>
  <path class="cls-2" d="M190.573,263.088c28.869,7.893,52.768,43.202,41.352,72.608-10.389-26.07-27.212-48.551-41.352-72.616v.008Z"/>
  <path class="cls-2" d="M198.723,331.646c-5.098-28.734,14.897-60.664,42.507-69.636-12.453,24.258-27.151,47.09-42.507,69.633v.003h0Z"/>
  <path class="cls-2" d="M325.611,265.816c-14.024,25.155-29.397,49.843-45.297,73.806-4.647-30.394,16.324-63.915,45.286-73.79l.011-.016h0Z"/>
  <path class="cls-2" d="M272.848,262.552c25.999,13.339,49.113,50.723,42.158,80.318-14.69-26.492-31.493-51.831-42.158-80.318Z"/>
  <path class="cls-2" d="M288.021,441.774h-67.305l11.296-11.13c.063-.063,8.297-8.427,16.913-26.902l5.895-12.64,5.889,12.643c.081.173,8.288,17.653,17.102,27.094l10.211,10.936ZM249.832,428.774h10.064c-1.851-2.8-3.548-5.611-5.025-8.195-1.776,3.128-3.478,5.855-5.04,8.195Z"/>
  <rect class="cls-1" width="512" height="512"/>
</svg>