<?xml version="1.0" encoding="UTF-8"?>
<svg id="Layer_1" data-name="Layer 1" xmlns="http://www.w3.org/2000/svg" viewBox="0 0 512 512">
  <defs>
    <style>
      .cls-1, .cls-2, .cls-3 {
        fill: none;
      }

      .cls-1, .cls-4 {
        stroke-width: 0px;
      }

      .cls-2 {
        stroke-width: 14px;
      }

      .cls-2, .cls-3 {
        stroke: #231f20;
        stroke-miterlimit: 10;
      }

      .cls-3 {
        stroke-width: 19px;
      }

      .cls-4 {
        fill: #231f20;
      }
    </style>
  </defs>
  <path class="cls-3" d="M369.0152,403.2869c-51.029-183.1212,10.4223-311.046,10.4223-311.046-73.2753,50.9566-92.8255,107.2839-92.8255,107.2839-29.3374-59.8996-49.0431-87.6907-50.0374-89.5453-1.2301,66.5727-14.6888,98.3757-14.6888,98.3757-34.625-82.5693-109.6958-109.8486-109.6958-109.8486,105.8019,175.553,38.6128,292.1015,38.6128,292.1015,67.24-34.9117,138.9851-19.7968,218.2125,12.6788Z"/>
  <path class="cls-4" d="M190.5732,263.0879c28.8694,7.8934,52.7681,43.2024,41.3517,72.608-10.3894-26.0704-27.2119-48.5515-41.3517-72.616v.008Z"/>
  <path class="cls-4" d="M198.723,331.6464c-5.0977-28.7338,14.8973-60.664,42.5067-69.6359-12.4532,24.2578-27.1513,47.0902-42.5067,69.6332v.0027h0Z"/>
  <path class="cls-4" d="M325.6107,265.8161c-14.0238,25.1552-29.3973,49.8429-45.2966,73.8059-4.6465-30.3938,16.3242-63.9151,45.2858-73.7898l.0107-.0161Z"/>
  <path class="cls-4" d="M272.8478,262.5519c25.9989,13.3386,49.113,50.7229,42.1583,80.3182-14.6902-26.4921-31.4927-51.8309-42.1583-80.3182Z"/>
  <path class="cls-2" d="M273.0595,435.2748h-36.4849s8.9135-8.7822,18.2424-28.7854c0,0,8.5946,18.4515,18.2424,28.7854Z"/>
  <rect class="cls-1" width="512" height="512"/>
</svg>