<?xml version="1.0" encoding="UTF-8"?>
<svg id="Layer_1" data-name="Layer 1" xmlns="http://www.w3.org/2000/svg" viewBox="0 0 512 512">
  <defs>
    <style>
      .cls-1, .cls-2, .cls-3 {
        fill: none;
      }

      .cls-1, .cls-4 {
        stroke-width: 0px;
      }

      .cls-2 {
        stroke-width: 14px;
      }

      .cls-2, .cls-3 {
        stroke: #231f20;
        stroke-miterlimit: 10;
      }

      .cls-3 {
        stroke-width: 19px;
      }

      .cls-4 {
        fill: #231f20;
      }
    </style>
  </defs>
  <path class="cls-3" d="M369.0152,403.2869c-51.029-183.12116,10.42234-311.04602,10.42234-311.04602-73.27526,50.95663-92.82553,107.28387-92.82553,107.28387-29.33743-59.89962-49.04314-87.69073-50.0374-89.54527-1.2301,66.5727-14.68881,98.37569-14.68881,98.37569-34.62497-82.56933-109.69581-109.84856-109.69581-109.84856,105.80186,175.55298,38.61276,292.10146,38.61276,292.10146,67.24-34.91175,138.98505-19.79683,218.21245,12.67884Z"/>
  <path class="cls-4" d="M190.57324,263.08786c28.86936,7.89342,52.76809,43.20242,41.35168,72.60797-10.3894-26.0704-27.21188-48.5515-41.35168-72.616v.00802Z"/>
  <path class="cls-4" d="M198.72299,331.64642c-5.09767-28.73379,14.89735-60.66405,42.50671-69.63588-12.45318,24.2578-27.15126,47.09023-42.50674,69.63322v.0027l.00003-.00003Z"/>
  <path class="cls-4" d="M325.61069,265.81606c-14.02384,25.15515-29.39733,49.84287-45.29656,73.8059-4.64651-30.39382,16.32417-63.91515,45.28584-73.78983l.01072-.01606Z"/>
  <path class="cls-4" d="M272.84779,262.55186c25.99887,13.33856,49.11298,50.72294,42.15833,80.31816-14.69019-26.49213-31.49269-51.83095-42.15833-80.31816Z"/>
  <path class="cls-2" d="M273.05949,435.27484h-36.48487s8.91352-8.7822,18.24243-28.78539c0,0,8.5946,18.45151,18.24243,28.78539Z"/>
  <rect class="cls-1" width="512" height="512"/>
</svg>