<?xml version="1.0" encoding="UTF-8"?>
<svg id="Layer_1" data-name="Layer 1" xmlns="http://www.w3.org/2000/svg" viewBox="0 0 512 512">
  <defs>
    <style>
      .cls-1, .cls-2, .cls-3 {
        fill: none;
      }

      .cls-1, .cls-4 {
        stroke-width: 0px;
      }

      .cls-2 {
        stroke-width: 14px;
      }

      .cls-2, .cls-3 {
        stroke: #231f20;
        stroke-miterlimit: 10;
      }

      .cls-3 {
        stroke-width: 19px;
      }

      .cls-4 {
        fill: #231f20;
      }
    </style>
  </defs>
  <path class="cls-3" d="M369.01519956,403.28689885c-51.02900007-183.12116274,10.42233659-311.04602251,10.42233659-311.04602251-73.27525823,50.9566318-92.82552916,107.28386599-92.82552916,107.28386599-29.33743243-59.89962124-49.04314289-87.69073215-50.037403-89.54526972-1.23009941,66.57269978-14.68880767,98.37569101-14.68880767,98.37569101-34.62497202-82.56932663-109.69581011-109.8485633-109.69581011-109.8485633,105.80185793,175.55297956,38.61275997,292.10145949,38.61275997,292.10145949,67.24000085-34.91174813,138.98505144-19.7968302,218.21245338,12.67883905Z"/>
  <path class="cls-4" d="M190.57323516,263.08786188c28.86935824,7.89342481,52.76809443,43.2024224,41.35168432,72.60797412-10.38939643-26.07040333-27.21187642-48.55150004-41.35168432-72.61599714v.00802301Z"/>
  <path class="cls-4" d="M198.72298934,331.64641884c-5.09766724-28.73378965,14.89734668-60.66404658,42.50671003-69.63587986-12.45317693,24.25779577-27.1512628,47.09022587-42.50673547,69.63321683v.00269695l.00002544-.00003392Z"/>
  <path class="cls-4" d="M325.61069218,265.8160599c-14.02383888,25.15515211-29.39732516,49.8428661-45.29656483,73.80589667-4.64651262-30.39382425,16.32417108-63.91514838,45.28584487-73.78983368l.01071997-.01606299Z"/>
  <path class="cls-4" d="M272.84778811,262.55186346c25.99887468,13.33855811,49.11297535,50.72293819,42.15832802,80.31815872-14.69019007-26.49212892-31.49268885-51.8309453-42.15832802-80.31815872Z"/>
  <path class="cls-2" d="M273.05949052,435.27484346h-36.48486957s8.913518-8.78219839,18.24243478-28.78538798c0,0,8.59459895,18.45150809,18.24243478,28.78538798Z"/>
  <rect class="cls-1" width="512" height="512"/>
</svg>