<?xml version="1.0" encoding="UTF-8"?>
<svg id="Layer_1" data-name="Layer 1" xmlns="http://www.w3.org/2000/svg" viewBox="0 0 1125.0859 1360.6772">
  <defs>
    <style>
      .cls-1 {
        stroke-width: 51.73px;
      }

      .cls-1, .cls-2 {
        fill: none;
        stroke: #231f20;
        stroke-miterlimit: 10;
      }

      .cls-2 {
        stroke-width: 67.25px;
      }

      .cls-3 {
        fill: #231f20;
        stroke-width: 0px;
      }
    </style>
  </defs>
  <path class="cls-2" d="M1002.0235,1219.7084c-183.6203-658.9344,37.5032-1119.2531,37.5032-1119.2531-263.6702,183.3599-334.0189,386.0451-334.0189,386.0451-105.5664-215.5399-176.4745-315.5421-180.0522-322.2154-4.4263,239.552-52.8555,353.9904-52.8555,353.9904C348.0073,221.1619,77.876,123.0016,77.876,123.0016c380.7123,631.7014,138.9423,1051.0839,138.9423,1051.0839,241.9532-125.6248,500.1171-71.236,785.2052,45.6229Z"/>
  <path class="cls-3" d="M359.9265,715.2229c103.8821,28.4033,189.8782,155.4575,148.7979,261.269-37.3847-93.8105-97.9179-174.7054-148.7979-261.2979v.0289Z"/>
  <path class="cls-3" d="M389.2522,961.9207c-18.3432-103.3943,53.6059-218.2906,152.9541-250.5744-44.8109,87.2881-97.6998,169.4472-152.9542,250.5648v.0097Z"/>
  <path class="cls-3" d="M845.8388,725.0399c-50.4627,90.5171-105.7819,179.3522-162.993,265.5796-16.7198-109.3677,58.7401-229.9892,162.9544-265.5218l.0386-.0578Z"/>
  <path class="cls-3" d="M655.9793,713.2942c93.5531,47.9968,176.7258,182.519,151.7005,289.013-52.8605-95.328-113.3218-186.506-151.7005-289.013Z"/>
  <path class="cls-1" d="M656.7411,1334.8122h-131.2854s32.074-31.6015,65.6427-103.5799c0,0,30.9264,66.395,65.6427,103.5799Z"/>
</svg>